<mxfile host="Electron" modified="2024-03-21T19:10:17.297Z" agent="Mozilla/5.0 (Windows NT 10.0; Win64; x64) AppleWebKit/537.36 (KHTML, like Gecko) draw.io/21.6.8 Chrome/114.0.5735.289 Electron/25.5.0 Safari/537.36" etag="_xwapNZrOABDi2krscVB" version="21.6.8" type="device" pages="2">
  <diagram name="Диаграмма 1" id="ndmiRCe8teFd3rXQoLC_">
    <mxGraphModel dx="714" dy="423" grid="1" gridSize="10" guides="1" tooltips="1" connect="1" arrows="1" fold="1" page="1" pageScale="1" pageWidth="827" pageHeight="1169" math="0" shadow="0">
      <root>
        <mxCell id="0zOb8TaqH8_n49DzM3s3-0" />
        <mxCell id="0zOb8TaqH8_n49DzM3s3-1" parent="0zOb8TaqH8_n49DzM3s3-0" />
        <mxCell id="0zOb8TaqH8_n49DzM3s3-2" value="Админ. панель" style="shape=umlLifeline;perimeter=lifelinePerimeter;whiteSpace=wrap;html=1;container=1;collapsible=0;recursiveResize=0;outlineConnect=0;rounded=1;shadow=0;comic=0;labelBackgroundColor=none;strokeWidth=1;fontFamily=Verdana;fontSize=12;align=center;size=50;" vertex="1" parent="0zOb8TaqH8_n49DzM3s3-1">
          <mxGeometry x="170" y="70" width="100" height="770" as="geometry" />
        </mxCell>
        <mxCell id="0zOb8TaqH8_n49DzM3s3-3" value="" style="html=1;points=[];perimeter=orthogonalPerimeter;rounded=0;shadow=0;comic=0;labelBackgroundColor=none;strokeWidth=1;fontFamily=Verdana;fontSize=12;align=center;" vertex="1" parent="0zOb8TaqH8_n49DzM3s3-2">
          <mxGeometry x="45" y="90" width="10" height="620" as="geometry" />
        </mxCell>
        <mxCell id="pYscWNy4qLFchUYIGiMH-4" value="Выбор&lt;br&gt;мероприятия" style="html=1;verticalAlign=bottom;endArrow=block;labelBackgroundColor=none;fontFamily=Verdana;fontSize=12;edgeStyle=elbowEdgeStyle;elbow=vertical;" edge="1" parent="0zOb8TaqH8_n49DzM3s3-2" source="0zOb8TaqH8_n49DzM3s3-5">
          <mxGeometry x="-0.0001" relative="1" as="geometry">
            <mxPoint x="-90" y="370" as="sourcePoint" />
            <Array as="points">
              <mxPoint x="-20" y="370" />
            </Array>
            <mxPoint x="45" y="370" as="targetPoint" />
            <mxPoint as="offset" />
          </mxGeometry>
        </mxCell>
        <mxCell id="pYscWNy4qLFchUYIGiMH-1" value="Добавление&lt;br&gt;вопросов&lt;br&gt;к мероприятию" style="html=1;verticalAlign=bottom;endArrow=block;labelBackgroundColor=none;fontFamily=Verdana;fontSize=12;edgeStyle=elbowEdgeStyle;elbow=vertical;" edge="1" parent="0zOb8TaqH8_n49DzM3s3-2" source="0zOb8TaqH8_n49DzM3s3-5">
          <mxGeometry x="-0.0001" relative="1" as="geometry">
            <mxPoint x="-90" y="540" as="sourcePoint" />
            <Array as="points">
              <mxPoint x="-20" y="540" />
            </Array>
            <mxPoint x="45" y="540" as="targetPoint" />
            <mxPoint as="offset" />
          </mxGeometry>
        </mxCell>
        <mxCell id="pYscWNy4qLFchUYIGiMH-6" value="Отображение&lt;br&gt;мероприятия" style="html=1;verticalAlign=bottom;endArrow=open;endSize=8;labelBackgroundColor=none;fontFamily=Verdana;fontSize=12;" edge="1" parent="0zOb8TaqH8_n49DzM3s3-2" target="0zOb8TaqH8_n49DzM3s3-5">
          <mxGeometry relative="1" as="geometry">
            <mxPoint x="-90" y="450" as="targetPoint" />
            <mxPoint x="45" y="450" as="sourcePoint" />
            <mxPoint as="offset" />
            <Array as="points">
              <mxPoint x="-20" y="450" />
            </Array>
          </mxGeometry>
        </mxCell>
        <mxCell id="pYscWNy4qLFchUYIGiMH-10" value="Отправка&lt;br&gt;успешного&lt;br&gt;статуса&lt;br&gt;выполнения" style="html=1;verticalAlign=bottom;endArrow=open;dashed=1;endSize=8;labelBackgroundColor=none;fontFamily=Verdana;fontSize=12;" edge="1" parent="0zOb8TaqH8_n49DzM3s3-2">
          <mxGeometry relative="1" as="geometry">
            <mxPoint x="55" y="690" as="targetPoint" />
            <mxPoint x="185" y="690" as="sourcePoint" />
            <Array as="points" />
          </mxGeometry>
        </mxCell>
        <mxCell id="pYscWNy4qLFchUYIGiMH-7" value="Отображение&lt;br&gt;уведомления&lt;br&gt;о сохранении" style="html=1;verticalAlign=bottom;endArrow=open;endSize=8;labelBackgroundColor=none;fontFamily=Verdana;fontSize=12;" edge="1" parent="0zOb8TaqH8_n49DzM3s3-2">
          <mxGeometry relative="1" as="geometry">
            <mxPoint x="-90" y="710" as="targetPoint" />
            <mxPoint x="45" y="710" as="sourcePoint" />
            <mxPoint as="offset" />
            <Array as="points">
              <mxPoint x="-20" y="710" />
            </Array>
          </mxGeometry>
        </mxCell>
        <mxCell id="0zOb8TaqH8_n49DzM3s3-4" value="" style="group" vertex="1" connectable="0" parent="0zOb8TaqH8_n49DzM3s3-1">
          <mxGeometry x="40" y="40" width="80" height="800" as="geometry" />
        </mxCell>
        <mxCell id="0zOb8TaqH8_n49DzM3s3-5" value="" style="shape=umlLifeline;perimeter=lifelinePerimeter;whiteSpace=wrap;html=1;container=1;dropTarget=0;collapsible=0;recursiveResize=0;outlineConnect=0;portConstraint=eastwest;newEdgeStyle={&quot;edgeStyle&quot;:&quot;elbowEdgeStyle&quot;,&quot;elbow&quot;:&quot;vertical&quot;,&quot;curved&quot;:0,&quot;rounded&quot;:0};participant=umlActor;size=90;" vertex="1" parent="0zOb8TaqH8_n49DzM3s3-4">
          <mxGeometry x="20" width="40" height="800" as="geometry" />
        </mxCell>
        <mxCell id="0zOb8TaqH8_n49DzM3s3-6" value="Администратор" style="text;align=center;fontStyle=0;verticalAlign=middle;spacingLeft=3;spacingRight=3;strokeColor=none;rotatable=0;points=[[0,0.5],[1,0.5]];portConstraint=eastwest;html=1;labelBackgroundColor=default;" vertex="1" parent="0zOb8TaqH8_n49DzM3s3-4">
          <mxGeometry y="60.46566838396971" width="80" height="33.15942028985507" as="geometry" />
        </mxCell>
        <mxCell id="0zOb8TaqH8_n49DzM3s3-7" value="Сервер" style="shape=umlLifeline;perimeter=lifelinePerimeter;whiteSpace=wrap;html=1;container=1;collapsible=0;recursiveResize=0;outlineConnect=0;rounded=1;shadow=0;comic=0;labelBackgroundColor=none;strokeWidth=1;fontFamily=Verdana;fontSize=12;align=center;size=50;" vertex="1" parent="0zOb8TaqH8_n49DzM3s3-1">
          <mxGeometry x="310" y="70" width="100" height="770" as="geometry" />
        </mxCell>
        <mxCell id="0zOb8TaqH8_n49DzM3s3-8" value="" style="html=1;points=[];perimeter=orthogonalPerimeter;rounded=0;shadow=0;comic=0;labelBackgroundColor=none;strokeWidth=1;fontFamily=Verdana;fontSize=12;align=center;" vertex="1" parent="0zOb8TaqH8_n49DzM3s3-7">
          <mxGeometry x="45" y="110" width="10" height="580" as="geometry" />
        </mxCell>
        <mxCell id="pYscWNy4qLFchUYIGiMH-2" value="Отправка данных&lt;br&gt;для обновления" style="html=1;verticalAlign=bottom;endArrow=block;labelBackgroundColor=none;fontFamily=Verdana;fontSize=12;edgeStyle=elbowEdgeStyle;elbow=horizontal;dashed=1;" edge="1" parent="0zOb8TaqH8_n49DzM3s3-7">
          <mxGeometry relative="1" as="geometry">
            <mxPoint x="-85" y="580" as="sourcePoint" />
            <Array as="points">
              <mxPoint x="-25" y="580" />
            </Array>
            <mxPoint x="45" y="580" as="targetPoint" />
          </mxGeometry>
        </mxCell>
        <mxCell id="0zOb8TaqH8_n49DzM3s3-9" value="База данных" style="shape=umlLifeline;perimeter=lifelinePerimeter;whiteSpace=wrap;html=1;container=1;collapsible=0;recursiveResize=0;outlineConnect=0;rounded=1;shadow=0;comic=0;labelBackgroundColor=none;strokeWidth=1;fontFamily=Verdana;fontSize=12;align=center;size=50;" vertex="1" parent="0zOb8TaqH8_n49DzM3s3-1">
          <mxGeometry x="450" y="71" width="100" height="769" as="geometry" />
        </mxCell>
        <mxCell id="0zOb8TaqH8_n49DzM3s3-10" value="" style="html=1;points=[];perimeter=orthogonalPerimeter;rounded=0;shadow=0;comic=0;labelBackgroundColor=none;strokeWidth=1;fontFamily=Verdana;fontSize=12;align=center;" vertex="1" parent="0zOb8TaqH8_n49DzM3s3-9">
          <mxGeometry x="45" y="150" width="10" height="520" as="geometry" />
        </mxCell>
        <mxCell id="pYscWNy4qLFchUYIGiMH-9" value="Отправка&lt;br&gt;номера&lt;br&gt;мероприятия" style="html=1;verticalAlign=bottom;endArrow=open;dashed=1;endSize=8;labelBackgroundColor=none;fontFamily=Verdana;fontSize=12;" edge="1" parent="0zOb8TaqH8_n49DzM3s3-9">
          <mxGeometry relative="1" as="geometry">
            <mxPoint x="-85" y="669" as="targetPoint" />
            <mxPoint x="45" y="669" as="sourcePoint" />
            <Array as="points" />
          </mxGeometry>
        </mxCell>
        <mxCell id="0zOb8TaqH8_n49DzM3s3-11" value="Отправка данных&lt;br&gt;для создания" style="html=1;verticalAlign=bottom;endArrow=block;labelBackgroundColor=none;fontFamily=Verdana;fontSize=12;edgeStyle=elbowEdgeStyle;elbow=horizontal;dashed=1;" edge="1" parent="0zOb8TaqH8_n49DzM3s3-1" source="0zOb8TaqH8_n49DzM3s3-3" target="0zOb8TaqH8_n49DzM3s3-8">
          <mxGeometry relative="1" as="geometry">
            <mxPoint x="240" y="180.00000000000006" as="sourcePoint" />
            <Array as="points">
              <mxPoint x="290" y="180" />
            </Array>
            <mxPoint x="374.5" y="180.00000000000006" as="targetPoint" />
          </mxGeometry>
        </mxCell>
        <mxCell id="0zOb8TaqH8_n49DzM3s3-12" value="Создание&lt;br&gt;мероприятия" style="html=1;verticalAlign=bottom;endArrow=block;labelBackgroundColor=none;fontFamily=Verdana;fontSize=12;edgeStyle=elbowEdgeStyle;elbow=vertical;" edge="1" parent="0zOb8TaqH8_n49DzM3s3-1" source="0zOb8TaqH8_n49DzM3s3-5" target="0zOb8TaqH8_n49DzM3s3-3">
          <mxGeometry x="-0.0001" relative="1" as="geometry">
            <mxPoint x="80" y="170" as="sourcePoint" />
            <Array as="points">
              <mxPoint x="150" y="160" />
            </Array>
            <mxPoint x="220" y="170" as="targetPoint" />
            <mxPoint as="offset" />
          </mxGeometry>
        </mxCell>
        <mxCell id="0zOb8TaqH8_n49DzM3s3-13" value="Добавление&lt;br&gt;мероприятия&lt;br&gt;с настройками&lt;br&gt;по умолчанию" style="html=1;verticalAlign=bottom;endArrow=block;labelBackgroundColor=none;fontFamily=Verdana;fontSize=12;edgeStyle=elbowEdgeStyle;elbow=vertical;dashed=1;" edge="1" parent="0zOb8TaqH8_n49DzM3s3-1" source="0zOb8TaqH8_n49DzM3s3-8" target="0zOb8TaqH8_n49DzM3s3-10">
          <mxGeometry relative="1" as="geometry">
            <mxPoint x="365" y="221" as="sourcePoint" />
            <Array as="points">
              <mxPoint x="420" y="221" />
            </Array>
            <mxPoint x="490" y="221" as="targetPoint" />
          </mxGeometry>
        </mxCell>
        <mxCell id="0zOb8TaqH8_n49DzM3s3-14" value="Отправка&lt;br&gt;номера&lt;br&gt;мероприятия" style="html=1;verticalAlign=bottom;endArrow=open;dashed=1;endSize=8;labelBackgroundColor=none;fontFamily=Verdana;fontSize=12;" edge="1" parent="0zOb8TaqH8_n49DzM3s3-1" source="0zOb8TaqH8_n49DzM3s3-10">
          <mxGeometry relative="1" as="geometry">
            <mxPoint x="365" y="281" as="targetPoint" />
            <mxPoint x="480" y="251" as="sourcePoint" />
            <Array as="points" />
          </mxGeometry>
        </mxCell>
        <mxCell id="0zOb8TaqH8_n49DzM3s3-15" value="Отправка&lt;br&gt;мепроприятия&lt;br&gt;с номером" style="html=1;verticalAlign=bottom;endArrow=open;endSize=8;labelBackgroundColor=none;fontFamily=Verdana;fontSize=12;dashed=1;" edge="1" parent="0zOb8TaqH8_n49DzM3s3-1" source="0zOb8TaqH8_n49DzM3s3-8" target="0zOb8TaqH8_n49DzM3s3-3">
          <mxGeometry relative="1" as="geometry">
            <mxPoint x="230" y="339.2" as="targetPoint" />
            <mxPoint x="360" y="339.2" as="sourcePoint" />
            <mxPoint as="offset" />
            <Array as="points">
              <mxPoint x="295" y="339.2" />
            </Array>
          </mxGeometry>
        </mxCell>
        <mxCell id="0zOb8TaqH8_n49DzM3s3-16" value="Уведомление&lt;br&gt;о создании&lt;br&gt;мероприятия" style="html=1;verticalAlign=bottom;endArrow=open;endSize=8;labelBackgroundColor=none;fontFamily=Verdana;fontSize=12;" edge="1" parent="0zOb8TaqH8_n49DzM3s3-1" source="0zOb8TaqH8_n49DzM3s3-3" target="0zOb8TaqH8_n49DzM3s3-5">
          <mxGeometry relative="1" as="geometry">
            <mxPoint x="80" y="349" as="targetPoint" />
            <mxPoint x="210" y="349" as="sourcePoint" />
            <mxPoint as="offset" />
            <Array as="points">
              <mxPoint x="150" y="360" />
            </Array>
          </mxGeometry>
        </mxCell>
        <mxCell id="pYscWNy4qLFchUYIGiMH-3" value="Обновление&lt;br&gt;мероприятия" style="html=1;verticalAlign=bottom;endArrow=block;labelBackgroundColor=none;fontFamily=Verdana;fontSize=12;edgeStyle=elbowEdgeStyle;elbow=horizontal;dashed=1;" edge="1" parent="0zOb8TaqH8_n49DzM3s3-1" source="0zOb8TaqH8_n49DzM3s3-8" target="0zOb8TaqH8_n49DzM3s3-10">
          <mxGeometry relative="1" as="geometry">
            <mxPoint x="365" y="690" as="sourcePoint" />
            <Array as="points">
              <mxPoint x="425" y="690" />
            </Array>
            <mxPoint x="495" y="690" as="targetPoint" />
          </mxGeometry>
        </mxCell>
      </root>
    </mxGraphModel>
  </diagram>
  <diagram id="Mt55D-iGhozeHAfIItsf" name="Диаграмма 2">
    <mxGraphModel dx="1295" dy="768" grid="1" gridSize="10" guides="1" tooltips="1" connect="1" arrows="1" fold="1" page="1" pageScale="1" pageWidth="827" pageHeight="1169" math="0" shadow="0">
      <root>
        <mxCell id="0" />
        <mxCell id="1" parent="0" />
        <mxCell id="LqS7iihvPgykz7ajIJSf-1" value="Клиент (Telegram)" style="shape=umlLifeline;perimeter=lifelinePerimeter;whiteSpace=wrap;html=1;container=1;collapsible=0;recursiveResize=0;outlineConnect=0;rounded=1;shadow=0;comic=0;labelBackgroundColor=none;strokeWidth=1;fontFamily=Verdana;fontSize=12;align=center;size=50;" vertex="1" parent="1">
          <mxGeometry x="170" y="70" width="100" height="330" as="geometry" />
        </mxCell>
        <mxCell id="LqS7iihvPgykz7ajIJSf-2" value="" style="html=1;points=[];perimeter=orthogonalPerimeter;rounded=0;shadow=0;comic=0;labelBackgroundColor=none;strokeWidth=1;fontFamily=Verdana;fontSize=12;align=center;" vertex="1" parent="LqS7iihvPgykz7ajIJSf-1">
          <mxGeometry x="45" y="90" width="10" height="210" as="geometry" />
        </mxCell>
        <mxCell id="LqS7iihvPgykz7ajIJSf-3" value="" style="group" vertex="1" connectable="0" parent="1">
          <mxGeometry x="40" y="40" width="80" height="360" as="geometry" />
        </mxCell>
        <mxCell id="LqS7iihvPgykz7ajIJSf-4" value="" style="shape=umlLifeline;perimeter=lifelinePerimeter;whiteSpace=wrap;html=1;container=1;dropTarget=0;collapsible=0;recursiveResize=0;outlineConnect=0;portConstraint=eastwest;newEdgeStyle={&quot;edgeStyle&quot;:&quot;elbowEdgeStyle&quot;,&quot;elbow&quot;:&quot;vertical&quot;,&quot;curved&quot;:0,&quot;rounded&quot;:0};participant=umlActor;size=90;" vertex="1" parent="LqS7iihvPgykz7ajIJSf-3">
          <mxGeometry x="20" width="40" height="360" as="geometry" />
        </mxCell>
        <mxCell id="LqS7iihvPgykz7ajIJSf-5" value="Пользователь" style="text;align=center;fontStyle=0;verticalAlign=middle;spacingLeft=3;spacingRight=3;strokeColor=none;rotatable=0;points=[[0,0.5],[1,0.5]];portConstraint=eastwest;html=1;labelBackgroundColor=default;" vertex="1" parent="LqS7iihvPgykz7ajIJSf-3">
          <mxGeometry y="79.99739130434783" width="80" height="14.921739130434782" as="geometry" />
        </mxCell>
        <mxCell id="LqS7iihvPgykz7ajIJSf-6" value="Сервер" style="shape=umlLifeline;perimeter=lifelinePerimeter;whiteSpace=wrap;html=1;container=1;collapsible=0;recursiveResize=0;outlineConnect=0;rounded=1;shadow=0;comic=0;labelBackgroundColor=none;strokeWidth=1;fontFamily=Verdana;fontSize=12;align=center;size=50;" vertex="1" parent="1">
          <mxGeometry x="310" y="70" width="100" height="330" as="geometry" />
        </mxCell>
        <mxCell id="LqS7iihvPgykz7ajIJSf-7" value="" style="html=1;points=[];perimeter=orthogonalPerimeter;rounded=0;shadow=0;comic=0;labelBackgroundColor=none;strokeWidth=1;fontFamily=Verdana;fontSize=12;align=center;" vertex="1" parent="LqS7iihvPgykz7ajIJSf-6">
          <mxGeometry x="45" y="110" width="10" height="170" as="geometry" />
        </mxCell>
        <mxCell id="LqS7iihvPgykz7ajIJSf-15" value="База данных" style="shape=umlLifeline;perimeter=lifelinePerimeter;whiteSpace=wrap;html=1;container=1;collapsible=0;recursiveResize=0;outlineConnect=0;rounded=1;shadow=0;comic=0;labelBackgroundColor=none;strokeWidth=1;fontFamily=Verdana;fontSize=12;align=center;size=50;" vertex="1" parent="1">
          <mxGeometry x="450" y="71" width="100" height="329" as="geometry" />
        </mxCell>
        <mxCell id="LqS7iihvPgykz7ajIJSf-16" value="" style="html=1;points=[];perimeter=orthogonalPerimeter;rounded=0;shadow=0;comic=0;labelBackgroundColor=none;strokeWidth=1;fontFamily=Verdana;fontSize=12;align=center;" vertex="1" parent="LqS7iihvPgykz7ajIJSf-15">
          <mxGeometry x="45" y="150" width="10" height="60" as="geometry" />
        </mxCell>
        <mxCell id="LqS7iihvPgykz7ajIJSf-17" value="Отправка данных" style="html=1;verticalAlign=bottom;endArrow=block;labelBackgroundColor=none;fontFamily=Verdana;fontSize=12;edgeStyle=elbowEdgeStyle;elbow=vertical;" edge="1" parent="1" source="LqS7iihvPgykz7ajIJSf-2" target="LqS7iihvPgykz7ajIJSf-7">
          <mxGeometry relative="1" as="geometry">
            <mxPoint x="240" y="180.00000000000006" as="sourcePoint" />
            <Array as="points">
              <mxPoint x="290" y="180" />
            </Array>
            <mxPoint x="374.5" y="180.00000000000006" as="targetPoint" />
          </mxGeometry>
        </mxCell>
        <mxCell id="LqS7iihvPgykz7ajIJSf-18" value="Запрос&lt;br&gt;собственных броней" style="html=1;verticalAlign=bottom;endArrow=block;labelBackgroundColor=none;fontFamily=Verdana;fontSize=12;edgeStyle=elbowEdgeStyle;elbow=vertical;" edge="1" parent="1" source="LqS7iihvPgykz7ajIJSf-4" target="LqS7iihvPgykz7ajIJSf-2">
          <mxGeometry relative="1" as="geometry">
            <mxPoint x="80" y="170" as="sourcePoint" />
            <Array as="points">
              <mxPoint x="150" y="160" />
            </Array>
            <mxPoint x="220" y="170" as="targetPoint" />
            <mxPoint as="offset" />
          </mxGeometry>
        </mxCell>
        <mxCell id="LqS7iihvPgykz7ajIJSf-20" value="Запрос броней&lt;br&gt;по мероприятию и&lt;br&gt;по пользователю" style="html=1;verticalAlign=bottom;endArrow=block;labelBackgroundColor=none;fontFamily=Verdana;fontSize=12;edgeStyle=elbowEdgeStyle;elbow=vertical;" edge="1" parent="1" source="LqS7iihvPgykz7ajIJSf-7" target="LqS7iihvPgykz7ajIJSf-16">
          <mxGeometry relative="1" as="geometry">
            <mxPoint x="365" y="221" as="sourcePoint" />
            <Array as="points">
              <mxPoint x="420" y="221" />
            </Array>
            <mxPoint x="490" y="221" as="targetPoint" />
          </mxGeometry>
        </mxCell>
        <mxCell id="LqS7iihvPgykz7ajIJSf-21" value="Список броней" style="html=1;verticalAlign=bottom;endArrow=open;dashed=1;endSize=8;labelBackgroundColor=none;fontFamily=Verdana;fontSize=12;" edge="1" parent="1" source="LqS7iihvPgykz7ajIJSf-16">
          <mxGeometry relative="1" as="geometry">
            <mxPoint x="365" y="281" as="targetPoint" />
            <mxPoint x="480" y="251" as="sourcePoint" />
            <Array as="points">
              <mxPoint x="430" y="281" />
            </Array>
          </mxGeometry>
        </mxCell>
        <mxCell id="LqS7iihvPgykz7ajIJSf-26" value="Отправка&lt;br&gt;в текстовом виде" style="html=1;verticalAlign=bottom;endArrow=open;endSize=8;labelBackgroundColor=none;fontFamily=Verdana;fontSize=12;dashed=1;" edge="1" parent="1" source="LqS7iihvPgykz7ajIJSf-7" target="LqS7iihvPgykz7ajIJSf-2">
          <mxGeometry relative="1" as="geometry">
            <mxPoint x="230" y="339.2" as="targetPoint" />
            <mxPoint x="360" y="339.2" as="sourcePoint" />
            <mxPoint as="offset" />
            <Array as="points">
              <mxPoint x="295" y="339.2" />
            </Array>
          </mxGeometry>
        </mxCell>
        <mxCell id="LqS7iihvPgykz7ajIJSf-27" value="Отображение&lt;br&gt;в виде сообщения" style="html=1;verticalAlign=bottom;endArrow=open;endSize=8;labelBackgroundColor=none;fontFamily=Verdana;fontSize=12;" edge="1" parent="1" source="LqS7iihvPgykz7ajIJSf-2" target="LqS7iihvPgykz7ajIJSf-4">
          <mxGeometry relative="1" as="geometry">
            <mxPoint x="80" y="349" as="targetPoint" />
            <mxPoint x="210" y="349" as="sourcePoint" />
            <mxPoint as="offset" />
            <Array as="points">
              <mxPoint x="150" y="360" />
            </Array>
          </mxGeometry>
        </mxCell>
      </root>
    </mxGraphModel>
  </diagram>
</mxfile>
